<?xml version="1.0" standalone="no"?>
<!DOCTYPE svg PUBLIC "-//W3C//DTD SVG 20010904//EN"
 "http://www.w3.org/TR/2001/REC-SVG-20010904/DTD/svg10.dtd">
<svg version="1.0" xmlns="http://www.w3.org/2000/svg"
 width="50.000000pt" height="37.000000pt" viewBox="0 0 50.000000 37.000000"
 preserveAspectRatio="xMidYMid meet">
<metadata>
Created by potrace 1.12, written by Peter Selinger 2001-2015
</metadata>
<g transform="translate(0.000000,37.000000) scale(0.100000,-0.100000)"
fill="#000000" stroke="none">
<path d="M240 310 c0 -5 -7 -10 -15 -10 -8 0 -14 -3 -14 -7 4 -23 -3 -33 -21
-33 -11 0 -20 -4 -20 -9 0 -5 -13 -12 -30 -16 -17 -4 -30 -11 -30 -16 0 -5 -3
-8 -7 -8 -5 1 -15 1 -23 0 -13 -1 -13 -2 0 -11 12 -8 11 -10 -6 -10 -28 0 -50
-28 -57 -72 -8 -51 8 -67 78 -78 56 -9 62 -8 115 22 74 42 192 123 217 151 28
30 63 94 56 101 -10 10 -121 7 -128 -4 -3 -5 -19 -10 -36 -10 -16 0 -29 5 -29
10 0 6 -11 10 -25 10 -14 0 -25 -4 -25 -10z"/>
</g>
</svg>
